<?xml version="1.0" standalone="no"?>
<!DOCTYPE svg PUBLIC "-//W3C//DTD SVG 20010904//EN"
 "http://www.w3.org/TR/2001/REC-SVG-20010904/DTD/svg10.dtd">
<svg version="1.0" xmlns="http://www.w3.org/2000/svg"
 width="987.000000pt" height="510.000000pt" viewBox="0 0 987.000000 510.000000"
 preserveAspectRatio="xMidYMid meet">
<metadata>
Created by potrace 1.10, written by Peter Selinger 2001-2011
</metadata>
<g transform="translate(0.000000,510.000000) scale(0.100000,-0.100000)"
fill="#163fbb" stroke="none">
<path d="M2150 4610 c-172 -16 -476 -92 -606 -150 -136 -62 -263 -126 -302
-151 -24 -16 -45 -29 -47 -29 -7 0 -170 -116 -202 -143 -253 -217 -386 -371
-540 -627 -192 -318 -305 -739 -302 -1130 0 -167 29 -402 64 -520 7 -25 20
-72 30 -105 109 -393 355 -774 683 -1057 172 -148 350 -258 616 -378 86 -38
269 -89 491 -137 119 -25 552 -25 685 0 411 79 701 204 1005 433 272 205 499
481 646 784 34 69 67 138 75 153 8 16 14 33 14 39 0 5 6 24 13 41 18 42 31 86
56 182 78 313 98 554 67 792 -28 208 -41 275 -84 418 -184 623 -637 1138
-1237 1406 -159 71 -298 113 -545 164 -88 18 -449 28 -580 15z m530 -80 c227
-41 291 -55 370 -85 121 -45 269 -105 285 -115 6 -4 46 -27 90 -50 408 -220
775 -631 948 -1065 98 -247 135 -409 157 -688 22 -265 -33 -662 -119 -862 -5
-11 -16 -39 -25 -62 -9 -24 -24 -62 -33 -85 -17 -43 -70 -146 -105 -203 -10
-16 -21 -37 -25 -45 -12 -27 -94 -143 -161 -230 -135 -174 -365 -379 -552
-492 -378 -227 -753 -327 -1185 -315 -189 5 -228 9 -420 48 -91 19 -224 58
-300 89 -16 7 -39 16 -50 20 -124 48 -338 170 -468 269 -220 165 -387 351
-565 627 -26 41 -142 281 -142 295 0 8 -4 19 -10 25 -14 14 -75 207 -93 294
-49 237 -51 250 -51 490 0 243 4 273 55 505 86 386 308 772 608 1058 192 182
401 320 638 422 184 80 339 123 553 154 41 6 86 13 100 15 50 9 437 -2 500
-14z"/>
<path d="M2324 4417 c-2 -7 -3 -69 -2 -138 l3 -124 30 0 30 0 -2 127 c0 70 -4
132 -8 137 -9 15 -45 14 -51 -2z"/>
<path d="M2444 4418 c-7 -11 -17 -126 -18 -218 -1 -39 2 -45 19 -45 17 0 21 8
25 50 7 65 32 70 41 7 3 -23 13 -50 22 -59 29 -30 44 -2 51 100 3 50 7 106 9
122 2 26 -1 30 -23 30 -23 0 -25 -4 -30 -55 -5 -56 -23 -75 -28 -30 -8 75 -47
132 -68 98z"/>
<path d="M2663 4397 c-8 -10 -42 -187 -46 -242 -1 -13 5 -21 19 -23 19 -3 22
3 26 48 6 59 12 68 33 50 9 -8 15 -29 15 -55 0 -45 17 -69 43 -59 19 7 27 35
27 97 0 26 7 62 16 78 8 17 14 45 12 62 -2 26 -7 31 -23 29 -28 -5 -29 -7 -35
-69 -7 -82 -26 -79 -35 7 -5 53 -12 73 -25 80 -12 7 -21 6 -27 -3z"/>
<path d="M2008 4383 c-25 -28 -29 -58 -14 -88 13 -24 13 -32 -2 -61 -14 -31
-14 -37 1 -69 19 -40 55 -53 101 -37 17 6 43 8 57 5 36 -7 44 11 22 47 -13 23
-15 32 -5 42 7 7 12 22 12 35 0 34 -47 32 -60 -2 -11 -30 -16 -31 -29 -6 -8
14 -6 25 9 44 25 31 25 55 1 85 -23 27 -71 29 -93 5z m52 -58 c0 -8 -4 -15 -9
-15 -13 0 -22 16 -14 24 11 11 23 6 23 -9z m20 -120 c7 -8 9 -22 6 -31 -6 -15
-9 -15 -29 -1 -29 19 -35 47 -9 47 11 0 25 -7 32 -15z"/>
<path d="M2874 4323 c-30 -33 -67 -147 -59 -185 7 -30 48 -68 74 -68 23 0 67
47 86 92 8 21 16 63 16 95 2 48 -2 60 -21 75 -31 26 -67 22 -96 -9z m65 -47
c9 -11 8 -27 -4 -69 -26 -89 -65 -103 -65 -24 0 41 30 107 49 107 5 0 14 -6
20 -14z"/>
<path d="M1760 4296 c0 -58 -13 -65 -39 -20 -24 40 -54 43 -59 6 -2 -15 12
-40 47 -79 29 -33 51 -67 51 -79 0 -13 10 -35 23 -49 19 -23 24 -24 41 -12 18
13 18 16 1 66 -13 41 -16 69 -10 132 l7 79 -31 0 c-30 0 -31 -1 -31 -44z"/>
<path d="M3047 4283 c-3 -15 -11 -59 -17 -98 -6 -38 -16 -85 -22 -104 -9 -29
-8 -36 8 -48 24 -18 51 -16 58 3 10 25 72 116 106 154 36 40 35 64 -2 68 -23
3 -29 -4 -52 -52 -15 -31 -31 -56 -36 -56 -14 0 -12 47 2 87 9 25 9 39 2 51
-18 29 -42 26 -47 -5z"/>
<path d="M1550 4242 c-28 -24 -32 -35 -32 -73 1 -56 38 -127 81 -156 26 -17
38 -20 63 -12 18 5 41 17 51 27 18 18 18 20 -10 76 -24 49 -31 56 -53 54 -33
-4 -40 -42 -11 -58 27 -14 28 -50 2 -50 -42 0 -85 95 -62 138 6 11 20 24 32
27 14 5 19 14 17 28 -5 33 -41 33 -78 -1z"/>
<path d="M3222 4148 c-26 -34 -62 -79 -79 -99 -18 -20 -33 -44 -33 -53 0 -24
45 -20 61 5 20 29 53 16 44 -18 -6 -26 9 -53 30 -53 8 0 17 15 21 33 3 17 20
72 35 121 16 49 29 92 29 96 0 6 -44 30 -55 30 -3 0 -26 -28 -53 -62z m38 -62
c0 -17 -28 -41 -37 -32 -10 9 16 58 27 51 6 -3 10 -12 10 -19z"/>
<path d="M1359 4151 c-20 -16 -24 -28 -23 -69 0 -43 6 -58 37 -95 44 -54 46
-68 10 -84 -34 -16 -47 -5 -104 88 -43 71 -56 80 -83 53 -20 -20 -21 -15 14
-55 17 -19 51 -64 75 -101 25 -38 51 -68 59 -68 11 0 25 9 73 50 7 6 10 17 7
25 -5 12 3 15 34 15 69 0 101 47 75 112 -50 128 -116 177 -174 129z m77 -63
c50 -57 68 -108 42 -124 -15 -10 -75 59 -83 97 -11 50 9 63 41 27z"/>
<path d="M3363 4134 c-3 -8 -1 -20 6 -27 19 -19 12 -40 -40 -120 -47 -71 -50
-80 -36 -94 24 -24 41 -10 86 71 32 59 47 77 69 82 46 10 52 13 52 27 0 16
-93 77 -116 77 -8 0 -17 -7 -21 -16z"/>
<path d="M2200 4045 c-8 -2 -60 -11 -115 -20 -137 -22 -233 -50 -297 -85 -10
-6 -22 -10 -28 -10 -18 0 -142 -61 -230 -113 -118 -70 -222 -152 -334 -262
-73 -72 -246 -301 -246 -325 0 -5 -6 -15 -13 -22 -14 -15 -54 -97 -89 -183
-14 -33 -29 -69 -33 -80 -38 -92 -73 -270 -85 -426 -19 -240 17 -523 87 -686
7 -17 13 -36 13 -42 0 -6 4 -19 10 -29 5 -9 27 -55 49 -102 22 -47 51 -102 65
-123 14 -21 26 -40 26 -43 0 -3 4 -10 10 -17 5 -7 36 -48 69 -92 66 -89 171
-199 246 -260 28 -22 52 -42 55 -45 28 -30 278 -189 298 -190 4 -1 25 -9 47
-20 22 -11 46 -19 53 -20 7 0 20 -4 30 -10 59 -32 152 -60 287 -87 129 -26
481 -26 615 0 52 10 102 22 111 27 9 5 33 12 53 15 20 4 39 11 42 16 3 5 13 9
22 9 9 0 30 7 46 15 15 8 32 15 37 15 14 0 156 69 212 102 102 62 273 197 353
279 88 91 197 231 229 295 11 21 22 41 25 44 16 16 80 143 80 158 0 5 7 23 15
38 8 16 15 37 15 46 0 9 5 20 10 23 6 3 10 12 10 20 0 8 5 26 12 42 31 74 76
358 78 483 0 85 -27 320 -46 390 -22 81 -44 151 -60 187 -8 17 -14 36 -14 42
0 6 -4 19 -9 29 -5 9 -23 44 -39 77 -123 253 -295 463 -502 614 -47 33 -89 65
-95 69 -35 27 -140 84 -215 116 -19 8 -56 24 -82 35 -26 12 -54 21 -62 21 -8
0 -17 4 -20 9 -3 5 -22 12 -42 16 -20 3 -44 10 -53 15 -17 9 -118 27 -231 41
-61 7 -337 10 -370 4z m410 -63 c109 -16 274 -58 345 -88 271 -114 472 -259
660 -475 75 -87 202 -302 255 -434 126 -316 143 -685 50 -1050 -7 -27 -18 -63
-25 -80 -7 -16 -17 -41 -23 -55 -59 -143 -178 -347 -257 -440 -151 -177 -332
-318 -530 -413 -154 -74 -187 -86 -332 -121 -225 -54 -521 -55 -743 -2 -74 18
-165 44 -195 56 -38 16 -180 81 -210 97 -40 21 -166 105 -183 120 -7 7 -18 13
-23 13 -16 0 -271 261 -304 310 -17 25 -32 47 -35 50 -4 3 -17 23 -30 45 -13
22 -26 42 -29 45 -6 5 -88 172 -116 235 -29 66 -50 143 -83 300 -23 113 -23
477 0 590 28 136 39 179 54 212 8 17 14 38 14 46 0 9 6 28 14 44 8 15 36 73
63 128 26 55 51 102 54 105 3 3 18 25 32 50 15 25 38 58 52 74 14 16 25 33 25
38 0 13 276 288 289 288 5 0 16 6 23 13 17 15 143 99 183 120 17 9 66 32 110
52 44 20 87 40 95 44 9 5 31 12 50 16 19 4 40 10 45 14 13 8 111 29 195 42 36
6 83 14 105 19 51 11 308 6 405 -8z"/>
<path d="M2025 3530 c-4 -6 -3 -52 0 -102 7 -89 22 -132 52 -151 7 -4 13 -19
13 -31 0 -13 7 -37 15 -52 8 -16 15 -39 15 -51 0 -12 5 -25 10 -28 6 -3 10
-15 10 -26 0 -11 9 -40 20 -64 13 -30 18 -54 13 -75 -6 -31 -5 -32 18 -24 13
5 39 8 57 7 44 -1 90 -2 207 -1 55 0 107 -1 115 -3 11 -3 15 4 15 26 1 17 6
43 13 58 7 16 12 34 12 42 0 7 7 26 15 41 8 16 15 39 15 51 0 12 4 24 9 27 4
3 11 23 15 44 3 22 19 56 36 77 16 21 30 50 31 64 0 14 3 46 5 71 10 98 11 95
-16 97 -22 3 -30 -7 -69 -88 -42 -85 -44 -92 -32 -125 11 -29 10 -38 -1 -52
-8 -9 -25 -62 -37 -117 -13 -55 -25 -105 -27 -112 -2 -7 -26 -24 -54 -38 -46
-23 -54 -25 -86 -13 -27 10 -41 10 -68 0 -31 -11 -40 -10 -83 10 -48 23 -48
24 -69 103 -11 44 -24 87 -27 95 -17 44 -26 98 -20 136 3 27 1 49 -6 57 -6 8
-25 40 -42 73 -45 85 -59 99 -74 74z"/>
<path d="M1522 3388 c-6 -6 -12 -20 -12 -30 0 -21 21 -68 30 -68 12 0 19 -39
8 -46 -16 -10 -49 30 -57 67 -5 25 -13 35 -29 37 -25 4 -28 -9 -10 -59 17 -49
65 -97 125 -126 29 -13 53 -28 53 -33 0 -5 -9 -25 -21 -44 -17 -29 -20 -47
-16 -93 6 -70 21 -138 34 -155 5 -7 16 -32 23 -56 11 -34 11 -50 2 -76 -7 -18
-12 -47 -12 -66 0 -18 -12 -53 -28 -79 -39 -65 -58 -115 -78 -203 -13 -56 -25
-86 -45 -105 -31 -32 -59 -108 -59 -159 0 -46 -23 -79 -76 -110 -47 -28 -57
-44 -48 -80 16 -63 90 -3 146 119 17 36 38 50 38 25 0 -7 7 -26 16 -43 22 -41
20 -84 -5 -133 -25 -48 -25 -58 -7 -94 8 -14 14 -41 14 -60 0 -18 9 -60 21
-93 12 -32 21 -61 21 -62 0 -2 9 -3 20 -3 18 0 19 5 13 68 -3 37 -11 78 -18
92 -7 14 -15 42 -19 62 -6 36 -4 41 51 100 60 65 96 116 108 156 5 18 0 29
-20 48 -24 22 -26 29 -20 67 7 41 27 82 50 102 26 22 75 94 75 109 0 9 4 24 9
34 5 9 13 37 19 61 10 43 9 45 -32 96 -40 48 -42 55 -41 109 2 70 14 84 52 67
65 -29 103 -63 103 -92 0 -19 -7 -32 -22 -40 -21 -11 -20 -13 24 -54 26 -24
66 -57 91 -74 25 -16 48 -38 51 -47 7 -18 -10 -82 -25 -99 -5 -5 -9 -22 -9
-37 0 -21 5 -28 20 -28 11 0 22 -6 24 -12 2 -7 9 -35 15 -63 17 -71 56 -151
102 -211 39 -51 40 -53 25 -82 -8 -16 -12 -39 -9 -50 6 -24 -6 -29 -25 -10
-17 17 -122 19 -122 2 0 -8 5 -14 10 -14 6 0 10 -11 10 -25 0 -28 -3 -30 -29
-13 -16 10 -26 8 -56 -8 -20 -10 -43 -27 -52 -36 -20 -22 -51 -23 -73 -3 -22
20 -118 21 -147 2 -36 -23 5 -74 52 -64 31 5 50 -7 42 -27 -8 -20 -48 -36 -87
-36 -21 0 -37 -10 -59 -37 -17 -21 -31 -45 -31 -53 0 -29 -19 -39 -50 -27 -25
10 -33 8 -53 -11 -13 -12 -27 -22 -31 -22 -19 0 -66 -46 -66 -65 0 -12 15 -35
33 -53 33 -32 62 -35 95 -9 14 11 16 53 3 61 -12 8 -21 45 -11 51 4 3 19 -4
32 -15 19 -15 24 -26 20 -46 l-5 -27 54 7 c65 9 75 17 58 47 -16 30 -20 100
-7 117 16 19 30 14 23 -8 -8 -25 19 -27 61 -5 37 19 152 20 179 1 32 -22 82
-29 92 -14 11 18 59 48 77 48 8 0 21 12 28 28 32 62 42 72 75 72 36 0 44 15
14 25 -24 7 -32 56 -20 121 6 32 6 50 -1 52 -10 4 -14 32 -4 32 12 0 51 -25
89 -57 22 -19 46 -39 53 -45 13 -10 8 -87 -7 -98 -4 -3 -14 -18 -24 -33 -10
-15 -28 -32 -40 -36 -20 -8 -37 -23 -89 -78 -9 -10 -28 -26 -42 -36 -35 -24
-33 -35 8 -42 49 -10 70 0 92 42 10 20 38 55 62 78 32 32 42 49 42 74 0 41 21
37 32 -7 5 -17 31 -54 58 -81 28 -28 50 -55 50 -61 0 -35 69 -61 114 -44 24 9
20 19 -24 48 -23 15 -44 36 -48 47 -4 10 -30 34 -57 52 -38 24 -57 46 -78 89
-27 55 -30 98 -6 98 5 0 32 18 60 40 28 22 55 40 60 40 5 0 9 -21 9 -46 0 -25
5 -54 11 -66 14 -26 -5 -74 -33 -81 -28 -8 -13 -27 21 -27 27 0 58 -31 74 -72
3 -9 25 -25 49 -36 24 -10 49 -26 57 -35 17 -22 23 -21 77 3 53 24 179 26 202
4 7 -8 22 -14 32 -14 29 0 54 -43 41 -69 -20 -36 -14 -61 14 -61 14 0 34 -6
45 -12 16 -10 24 -10 41 0 18 12 23 11 36 -7 8 -12 22 -21 32 -21 9 0 22 -5
28 -11 8 -8 22 -1 52 29 l41 40 -25 30 c-14 17 -49 42 -78 58 -132 70 -139 75
-135 110 2 25 7 28 28 26 14 -2 31 -9 39 -15 11 -10 13 -8 6 13 -4 14 -14 33
-23 43 -12 14 -13 24 -4 55 29 103 48 276 34 306 -6 11 -13 41 -17 66 -3 25
-12 58 -20 74 -23 43 -19 58 13 54 19 -2 28 -9 30 -25 2 -12 18 -34 35 -49 18
-15 32 -37 33 -50 2 -37 24 -82 51 -99 20 -13 23 -22 18 -46 -8 -33 9 -45 49
-35 20 5 26 15 35 69 15 85 14 143 -4 219 -8 35 -14 72 -14 83 1 41 -30 136
-61 190 -18 31 -62 86 -99 123 -55 56 -74 70 -115 79 -54 12 -79 7 -159 -33
-27 -13 -57 -24 -66 -24 -25 0 -54 35 -47 57 3 10 47 56 98 102 51 46 101 98
110 115 19 34 24 131 8 141 -5 3 -10 15 -10 26 0 17 5 18 43 13 45 -8 52 -8
80 -6 22 2 24 54 2 72 -8 7 -15 18 -15 24 0 15 -56 66 -95 87 -16 9 -56 19
-88 23 -73 8 -78 -3 -43 -80 29 -62 27 -66 -25 -92 -23 -12 -37 -28 -44 -50
-7 -26 -17 -34 -47 -43 -38 -10 -50 -32 -24 -42 8 -3 30 -2 48 4 18 5 36 9 40
9 12 0 10 -34 -2 -46 -17 -17 0 -43 31 -51 16 -5 30 -12 30 -18 1 -5 -28 -26
-64 -45 -58 -31 -127 -91 -127 -111 0 -4 7 -10 15 -13 9 -3 23 -22 31 -41 8
-20 22 -39 32 -42 21 -8 32 -23 32 -45 0 -14 -8 -18 -34 -18 -19 0 -42 -7 -51
-16 -13 -14 -21 -15 -42 -5 -23 11 -25 16 -21 70 2 35 -2 64 -9 73 -7 7 -15
32 -19 55 -9 59 -14 64 -56 53 -21 -6 -143 -9 -289 -8 -254 3 -254 3 -257 25
-2 17 3 24 20 27 51 10 114 18 141 17 15 -1 44 -1 65 -1 20 0 51 -1 67 -1 29
-1 68 0 118 1 12 1 50 -2 85 -6 58 -6 62 -5 62 14 0 11 -6 24 -12 29 -7 5
-126 9 -267 8 l-253 0 -74 -75 c-48 -48 -74 -83 -74 -97 0 -31 11 -29 45 7 16
17 32 30 37 30 12 0 9 -40 -7 -94 -8 -27 -15 -66 -15 -87 0 -47 -15 -57 -44
-30 -17 16 -25 37 -29 80 -3 33 -12 72 -20 87 -9 16 -24 44 -33 62 -10 18 -29
35 -42 39 -13 3 -34 23 -48 44 -13 21 -42 50 -64 64 -40 25 -65 59 -55 74 8
14 146 24 175 13 27 -10 70 1 70 18 0 7 -16 10 -42 8 -37 -3 -43 0 -43 17 0
14 6 19 20 17 46 -7 58 -6 62 5 4 11 -57 43 -107 56 -34 9 -139 93 -149 120
-5 12 -34 39 -65 61 -31 21 -56 46 -56 55 0 10 -6 25 -13 34 -10 14 -15 15
-25 5z m203 -338 c20 -8 25 -14 17 -22 -17 -17 -62 -1 -62 23 0 11 4 18 9 15
4 -3 21 -10 36 -16z m1303 -31 c11 -17 11 -25 -3 -45 -12 -19 -21 -23 -43 -18
-71 17 -77 38 -21 66 45 22 52 22 67 -3z m-1248 -224 c0 -8 -4 -15 -10 -15 -5
0 -10 7 -10 15 0 8 5 15 10 15 6 0 10 -7 10 -15z m670 -110 c11 -28 28 -32 56
-10 45 34 47 0 2 -44 -17 -17 -30 -33 -27 -35 2 -2 27 0 55 3 28 4 56 5 62 3
22 -7 12 -32 -15 -39 -28 -7 -28 -7 11 -18 48 -14 57 -32 21 -41 -25 -6 -25
-7 -9 -25 15 -17 15 -19 0 -25 -9 -3 -32 -3 -51 0 -34 7 -35 6 -35 -22 0 -17
6 -32 15 -36 19 -7 20 -32 1 -39 -16 -6 -66 32 -66 51 0 13 -16 16 -24 4 -2
-4 -1 -14 4 -22 9 -15 -9 -62 -21 -54 -5 3 -9 21 -9 40 0 43 -22 42 -30 -2 -5
-26 -9 -29 -45 -29 -33 0 -39 3 -37 18 4 22 -9 22 -53 -3 -32 -18 -35 -18 -35
-2 1 24 26 54 58 68 24 10 25 13 9 19 -10 4 -28 3 -40 -3 -12 -5 -39 -10 -60
-10 -33 0 -38 3 -35 21 2 17 13 24 48 31 47 10 60 20 59 46 0 8 -5 4 -10 -9
-8 -21 -14 -23 -47 -17 -20 3 -49 6 -64 6 -35 0 -36 17 -3 32 20 9 22 14 14
30 -14 25 12 34 52 18 38 -16 44 -9 30 31 -6 18 -11 38 -11 45 0 21 39 4 61
-27 11 -16 25 -29 32 -29 8 0 8 3 -1 12 -17 17 -15 38 3 38 8 0 15 -4 15 -9 0
-5 22 -11 49 -13 l48 -3 -5 38 c-5 43 13 51 28 12z m-63 -1 c3 -8 1 -20 -4
-25 -12 -12 -48 14 -39 29 10 17 36 15 43 -4z m676 -121 c20 -3 40 -9 43 -14
3 -5 17 -9 32 -9 49 -1 144 -105 113 -125 -20 -12 -32 -81 -20 -109 13 -28 20
-31 35 -16 10 10 68 -3 87 -20 14 -13 -11 -57 -37 -64 -31 -8 -63 4 -99 38
-15 14 -39 26 -53 26 -13 0 -24 4 -24 9 0 11 -108 81 -126 81 -7 0 -19 10 -25
22 -17 32 -88 98 -105 98 -19 0 -18 26 1 34 8 3 15 12 15 21 0 22 59 46 95 39
17 -3 47 -8 68 -11z m-1300 -85 c-6 -13 -18 -48 -27 -78 -17 -57 -70 -150 -85
-150 -44 0 -1 166 62 241 28 33 34 36 46 24 11 -11 12 -20 4 -37z m1060 -17
c14 -17 15 -25 5 -40 -15 -25 -3 -41 52 -67 32 -15 41 -26 46 -54 4 -19 25
-70 47 -113 56 -109 41 -120 -50 -35 -83 77 -129 111 -146 105 -12 -4 90 -113
148 -156 17 -12 47 -38 68 -58 60 -55 74 -40 58 60 -5 31 -4 55 4 70 7 14 8
33 3 52 -12 45 7 51 31 10 16 -28 19 -41 11 -50 -8 -9 -8 -19 -1 -32 5 -10 22
-54 37 -97 23 -68 25 -85 15 -111 -6 -17 -11 -45 -11 -61 -1 -16 -9 -76 -18
-134 -18 -105 -18 -105 -54 -123 -35 -17 -39 -17 -69 -1 -18 9 -39 22 -46 29
-7 7 -21 11 -32 8 -25 -6 -61 30 -61 62 0 36 -47 57 -109 49 -41 -5 -51 -3
-62 13 -8 10 -32 23 -54 28 -29 7 -41 16 -43 31 -2 12 -12 30 -23 40 -10 9
-19 21 -19 25 0 5 22 41 48 81 50 75 73 121 111 218 25 66 26 74 5 90 -14 13
-44 73 -44 90 0 5 9 6 19 3 15 -4 25 5 42 39 38 75 49 79 92 29z m511 -122
c-8 -14 -24 -10 -24 6 0 9 6 12 15 9 8 -4 12 -10 9 -15z m-806 -81 c7 -7 12
-25 12 -40 0 -37 -30 -149 -45 -168 -20 -26 -35 -74 -32 -105 2 -25 -4 -32
-33 -47 -46 -23 -68 -22 -108 2 -30 18 -33 24 -27 51 5 20 2 36 -7 47 -21 25
-45 88 -64 165 -15 64 -15 69 2 88 15 17 31 19 154 19 92 0 140 -4 148 -12z
m-914 -107 c21 -69 18 -130 -6 -145 -24 -15 -36 0 -54 68 -12 46 -12 64 -3 96
18 60 41 53 63 -19z m556 -390 c0 -10 -7 -24 -15 -31 -8 -7 -15 -23 -15 -36 0
-14 -5 -34 -12 -47 -6 -12 -14 -29 -18 -37 -4 -8 -16 -16 -26 -18 -36 -6 -64
-25 -64 -45 0 -16 -3 -17 -15 -7 -9 8 -28 10 -49 6 -65 -12 -92 20 -34 42 23
8 35 9 45 0 18 -15 66 29 60 54 -3 9 1 22 9 29 8 6 14 20 14 30 0 10 5 21 10
24 6 3 10 15 10 25 0 14 9 20 38 23 20 2 43 4 50 5 6 1 12 -6 12 -17z m509
-53 c21 -42 28 -65 21 -73 -14 -17 -1 -26 21 -12 23 14 30 8 23 -20 -8 -30
-56 -40 -83 -17 -11 10 -18 21 -15 25 3 5 -2 22 -11 40 -9 17 -14 37 -11 46 3
8 1 23 -4 34 -6 11 -8 24 -5 29 14 23 35 6 64 -52z m142 -104 c7 -9 25 -20 39
-26 l25 -10 -27 -14 c-36 -19 -78 -4 -78 29 0 39 18 48 41 21z m125 -25 c10
-17 -12 -32 -35 -24 -29 9 -27 35 3 35 14 0 28 -5 32 -11z m182 -111 c18 -18
14 -38 -7 -38 -23 0 -35 15 -27 35 7 18 18 19 34 3z m71 -42 c9 -10 7 -16 -5
-27 -13 -10 -17 -10 -24 1 -9 14 -3 40 10 40 4 0 13 -6 19 -14z"/>
<path d="M2320 2400 c0 -5 6 -10 14 -10 8 0 18 5 21 10 3 6 -3 10 -14 10 -12
0 -21 -4 -21 -10z"/>
<path d="M2890 1755 l-25 -14 28 -1 c17 0 27 5 27 15 0 18 1 18 -30 0z"/>
<path d="M2310 2150 c0 -19 3 -21 12 -12 9 9 9 15 0 24 -9 9 -12 7 -12 -12z"/>
<path d="M2360 2160 c0 -7 9 -14 19 -17 11 -3 22 -15 24 -27 3 -11 4 -5 4 14
-2 28 -6 36 -24 38 -13 2 -23 -2 -23 -8z"/>
<path d="M2330 3109 c-19 -16 -41 -34 -47 -40 -7 -5 -13 -16 -13 -24 0 -19 52
-20 80 -3 16 10 26 10 52 -1 31 -12 76 -16 86 -7 12 12 -88 106 -113 106 -5 0
-26 -14 -45 -31z"/>
<path d="M1862 2350 c0 -19 2 -27 5 -17 2 9 2 25 0 35 -3 9 -5 1 -5 -18z"/>
<path d="M1825 2230 c-31 -35 -36 -79 -13 -124 19 -38 20 -46 9 -101 l-13 -60
38 -32 c29 -26 46 -33 79 -33 24 0 55 -2 71 -5 16 -3 36 -1 44 4 26 17 -9 40
-81 53 -35 6 -69 18 -76 25 -13 16 -8 66 12 130 14 42 10 118 -7 139 -16 21
-46 22 -63 4z"/>
<path d="M1944 2218 c3 -13 6 -37 6 -55 0 -21 6 -36 18 -42 27 -14 43 1 49 48
5 37 4 41 -16 41 -12 0 -24 7 -27 15 -10 25 -37 18 -30 -7z"/>
<path d="M2460 1709 c0 -19 4 -29 12 -27 16 6 17 58 1 58 -8 0 -13 -12 -13
-31z"/>
<path d="M2275 1707 c-4 -10 -5 -21 -1 -24 10 -10 18 4 13 24 -4 17 -4 17 -12
0z"/>
<path d="M2347 1523 c-32 -48 -45 -93 -26 -94 8 -1 32 -3 55 -5 23 -2 48 2 58
9 16 12 17 16 3 48 -8 19 -26 44 -39 57 l-25 23 -26 -38z"/>
<path d="M1846 1457 c-16 -12 -15 -14 5 -36 l22 -23 21 22 c21 21 21 21 2 36
-24 17 -28 17 -50 1z"/>
<path d="M2688 1441 c-8 -11 -20 -19 -28 -18 -26 1 -80 -25 -80 -39 0 -20 40
-17 56 4 13 16 14 16 20 -5 8 -29 34 -39 34 -13 0 21 38 37 65 26 10 -4 15 1
15 14 0 17 7 20 41 20 28 0 39 4 37 13 -7 19 -67 21 -74 3 -8 -20 -33 -20 -55
0 -15 14 -18 14 -31 -5z"/>
<path d="M2885 1451 c-10 -17 29 -29 70 -22 38 7 39 8 18 19 -26 14 -79 16
-88 3z"/>
<path d="M1955 1423 c9 -37 10 -38 49 -26 37 11 66 1 66 -22 0 -18 2 -18 46 0
24 10 34 20 32 32 -4 20 -41 30 -137 38 l-63 6 7 -28z"/>
<path d="M1735 1429 c-4 -6 -5 -13 -2 -16 7 -7 27 6 27 18 0 12 -17 12 -25 -2z"/>
<path d="M2240 1395 c-9 -11 -16 -12 -30 -2 -25 15 -34 5 -26 -28 5 -18 13
-25 31 -25 14 0 25 5 25 10 0 16 22 12 35 -7 7 -9 17 -13 23 -9 17 11 15 46
-3 46 -9 0 -18 7 -21 15 -8 19 -18 19 -34 0z"/>
<path d="M2436 1387 c-25 -18 -17 -51 13 -55 26 -4 41 12 41 46 0 25 -26 30
-54 9z"/>
<path d="M2504 1378 c3 -13 6 -26 6 -30 0 -5 7 -8 15 -8 10 0 15 10 15 30 0
24 -4 30 -21 30 -17 0 -20 -4 -15 -22z"/>
<path d="M2320 1356 c0 -45 18 -55 41 -25 16 22 16 25 2 41 -26 29 -43 22 -43
-16z"/>
<path d="M1753 1373 c-25 -5 -42 -48 -26 -64 5 -5 22 -11 39 -15 41 -8 65 15
55 53 -8 29 -24 35 -68 26z"/>
<path d="M2953 1372 c-6 -4 -14 -19 -18 -33 -5 -21 -2 -30 16 -43 13 -9 30
-16 37 -16 7 0 20 -7 28 -15 12 -11 39 -15 104 -15 90 0 120 5 120 21 0 5 -49
9 -110 9 -60 0 -110 3 -110 6 0 4 8 12 17 19 16 12 16 14 0 39 -10 14 -24 26
-31 26 -8 0 -20 2 -28 5 -7 3 -18 1 -25 -3z"/>
<path d="M1500 1305 c0 -6 7 -21 16 -33 14 -20 23 -22 107 -22 86 0 131 10
110 23 -5 3 -54 7 -109 9 -73 2 -102 7 -111 18 -7 8 -13 10 -13 5z"/>
<path d="M3515 4033 c-54 -61 -136 -186 -131 -198 12 -33 45 -15 87 48 23 34
55 76 71 93 32 34 34 67 6 72 -9 2 -24 -5 -33 -15z"/>
<path d="M1076 3949 c-40 -47 -34 -76 30 -155 43 -54 95 -79 126 -63 68 36 63
89 -17 180 -38 43 -74 69 -96 69 -10 0 -29 -14 -43 -31z m100 -73 c66 -65 58
-129 -9 -76 -53 42 -83 120 -46 120 6 0 31 -20 55 -44z"/>
<path d="M3605 3958 c-69 -38 -144 -153 -124 -190 16 -29 56 -51 83 -44 29 7
68 43 114 102 40 53 42 94 6 123 -30 23 -49 26 -79 9z m45 -72 c0 -28 -83
-120 -102 -114 -29 10 -18 45 31 98 50 53 71 58 71 16z"/>
<path d="M950 3837 c0 -15 13 -33 40 -53 47 -35 53 -58 13 -48 -16 4 -35 13
-44 21 -25 21 -72 22 -77 0 -4 -19 163 -187 186 -187 27 0 12 45 -23 69 -20
13 -34 29 -32 35 5 14 47 9 66 -8 26 -23 81 -24 81 -2 0 19 -175 196 -194 196
-10 0 -16 -9 -16 -23z"/>
<path d="M3683 3765 c-51 -52 -93 -98 -93 -104 0 -25 48 -10 76 24 16 19 32
35 36 35 15 0 8 -39 -13 -75 -22 -37 -20 -85 5 -85 7 0 31 20 54 44 23 25 64
64 92 87 52 44 63 73 31 82 -13 3 -34 -9 -66 -40 -26 -24 -49 -42 -51 -40 -6
5 17 55 40 89 20 30 16 79 -7 77 -6 -1 -54 -43 -104 -94z"/>
<path d="M800 3672 c0 -20 24 -45 53 -55 21 -8 23 -45 1 -54 -9 -3 -26 5 -42
20 -38 36 -66 39 -70 7 -2 -21 10 -34 77 -83 111 -81 111 -81 56 -107 -52 -25
-79 -22 -119 15 -25 23 -27 30 -21 71 6 44 6 44 -24 44 -25 0 -31 -5 -41 -35
-16 -49 10 -98 74 -142 61 -42 121 -45 154 -10 12 13 22 30 22 37 0 8 12 26
27 42 22 23 24 30 13 43 -8 9 -27 23 -42 31 -21 11 -28 21 -26 37 5 35 37 33
68 -3 31 -36 63 -38 68 -4 2 16 -7 27 -34 43 -20 12 -62 44 -94 71 -59 52
-100 65 -100 32z"/>
<path d="M3823 3554 c-7 -20 5 -42 34 -61 18 -12 23 -12 37 2 14 15 14 19 1
46 -17 33 -61 41 -72 13z"/>
<path d="M3995 3465 c-18 -17 -25 -35 -25 -63 0 -24 -6 -45 -16 -53 -13 -11
-20 -8 -46 20 -34 36 -52 36 -56 0 -5 -38 38 -79 83 -79 43 0 85 39 85 80 0
14 7 35 15 46 15 19 16 19 31 -3 9 -13 27 -23 40 -23 36 0 32 42 -7 74 -38 33
-73 33 -104 1z"/>
<path d="M581 3344 c-18 -30 -20 -42 -12 -61 6 -13 17 -23 25 -23 8 0 38 -13
66 -30 28 -16 55 -30 59 -30 5 0 14 -7 21 -15 22 -26 57 -18 79 19 25 40 27
64 4 73 -11 4 -22 -1 -31 -15 -27 -40 -85 -16 -63 26 18 33 -21 47 -44 15 -21
-29 -46 -9 -43 34 3 32 0 38 -18 41 -16 2 -27 -7 -43 -34z"/>
<path d="M4088 3320 c-27 -16 -52 -30 -57 -30 -5 0 -14 -7 -21 -15 -7 -8 -21
-15 -31 -15 -10 0 -25 -10 -33 -21 -13 -20 -13 -26 4 -59 11 -21 26 -40 33
-43 22 -8 36 12 28 42 -5 14 -6 32 -4 39 7 18 50 15 61 -4 14 -25 37 -11 37
21 0 29 34 61 42 39 10 -29 30 -45 46 -38 21 8 21 40 -2 79 -23 40 -47 41
-103 5z"/>
<path d="M510 3194 c-24 -55 -26 -92 -5 -101 9 -3 24 2 34 11 24 22 30 21 117
-20 58 -28 81 -34 93 -27 33 21 24 42 -26 63 -26 12 -61 27 -78 35 -16 7 -38
16 -47 19 -10 3 -18 14 -18 24 0 21 -18 42 -37 42 -6 0 -21 -21 -33 -46z"/>
<path d="M4095 3160 c-66 -36 -85 -59 -85 -101 0 -31 6 -43 30 -61 28 -20 29
-23 14 -40 -15 -16 -15 -18 0 -24 16 -6 36 -3 84 11 18 6 22 4 22 -14 0 -13
-8 -23 -24 -27 -24 -6 -74 -50 -65 -58 21 -19 50 -13 92 19 40 30 49 34 66 24
14 -10 25 -10 49 0 42 18 55 51 40 106 -14 54 -21 55 -124 20 -41 -14 -86 -25
-99 -25 -22 0 -25 4 -25 39 0 24 7 46 17 56 38 39 116 47 133 15 16 -29 60
-27 60 3 -1 68 -105 100 -185 57z m173 -202 c-2 -17 -11 -24 -30 -26 -19 -2
-28 1 -28 10 0 20 21 38 43 38 13 0 18 -6 15 -22z"/>
<path d="M614 2895 c-8 -19 22 -65 41 -65 8 0 15 -5 15 -11 0 -6 10 -9 22 -7
35 5 34 36 -3 69 -36 32 -66 37 -75 14z"/>
<path d="M402 2853 c-5 -10 -12 -35 -16 -56 -7 -36 -6 -38 30 -53 20 -9 69
-21 108 -27 80 -13 88 -24 56 -74 -18 -30 -24 -33 -68 -33 -54 0 -84 23 -96
73 -8 32 -31 35 -46 7 -15 -28 4 -83 35 -104 40 -27 117 -39 164 -26 32 8 45
19 60 48 14 28 17 42 9 56 -7 13 -6 25 3 42 19 36 18 108 -2 112 -11 2 -20 -7
-27 -27 -14 -41 -49 -43 -58 -3 -10 48 -14 54 -31 50 -9 -2 -20 -14 -23 -28
-4 -16 -13 -25 -25 -25 -16 0 -21 9 -25 40 -6 44 -32 59 -48 28z"/>
<path d="M4260 2834 c-30 -8 -77 -17 -105 -22 l-50 -7 -3 -52 c-3 -44 0 -53
18 -63 27 -14 40 -5 40 29 0 51 39 68 59 25 14 -32 46 -29 46 4 0 41 27 45 58
9 26 -31 28 -31 42 -13 15 19 11 70 -8 94 -11 15 -25 14 -97 -4z"/>
<path d="M4339 2686 c-13 -27 -29 -33 -131 -46 -39 -4 -75 -13 -81 -19 -16
-16 5 -47 29 -44 11 1 53 7 94 13 71 10 76 10 89 -10 7 -11 24 -20 39 -20 24
0 25 1 18 62 -10 86 -35 114 -57 64z"/>
<path d="M4130 2520 c0 -13 12 -25 35 -34 19 -8 35 -19 35 -25 0 -5 -16 -19
-36 -30 -19 -12 -34 -27 -31 -34 5 -16 71 -12 127 8 23 8 60 15 81 15 38 0 69
20 69 45 0 26 -31 45 -73 45 -23 0 -67 7 -97 15 -79 21 -110 20 -110 -5z m160
-50 c12 -8 12 -10 -3 -16 -22 -8 -50 3 -42 16 8 12 25 13 45 0z"/>
<path d="M352 2499 c3 -22 8 -24 60 -24 31 -1 60 -4 64 -8 9 -9 -74 -46 -103
-47 -19 0 -23 -6 -23 -29 l0 -29 123 -4 c138 -4 147 -3 147 22 0 24 -15 29
-72 22 -31 -3 -48 -1 -48 6 0 17 42 42 70 42 30 0 50 17 50 42 0 16 -9 18 -74
18 -40 0 -101 3 -135 7 -62 6 -63 6 -59 -18z"/>
<path d="M4137 2339 c-9 -33 -1 -39 54 -39 61 0 70 -26 12 -35 -64 -11 -73
-16 -73 -36 0 -15 7 -19 34 -19 18 0 47 5 64 11 25 9 36 8 54 -5 30 -21 81
-20 101 2 20 22 31 66 23 96 -5 22 -11 24 -103 29 -54 4 -112 9 -129 12 -27 6
-32 4 -37 -16z m210 -55 c8 -20 -19 -46 -39 -39 -19 7 -31 32 -22 46 9 15 54
10 61 -7z"/>
<path d="M577 2323 c-4 -3 -7 -14 -7 -24 0 -23 -27 -50 -44 -43 -7 3 -18 16
-25 30 -13 30 -33 27 -41 -7 -9 -37 -43 -37 -57 1 -8 20 -18 30 -32 30 -18 0
-21 -6 -21 -49 0 -67 13 -76 93 -62 35 6 89 11 120 11 l57 0 0 60 c0 52 -3 60
-18 60 -10 0 -22 -3 -25 -7z"/>
<path d="M560 2164 c-25 -7 -71 -13 -102 -13 -72 -1 -88 -8 -88 -36 0 -30 9
-32 84 -24 158 19 192 31 181 62 -9 22 -24 25 -75 11z"/>
<path d="M4125 2160 c-10 -30 2 -40 48 -40 23 0 67 -7 97 -15 73 -20 107 -19
118 3 16 30 3 42 -46 42 -26 1 -76 7 -112 15 -86 19 -98 18 -105 -5z"/>
<path d="M4116 2088 c-18 -10 -17 -12 14 -38 35 -29 37 -64 3 -58 -25 4 -43
-10 -43 -32 0 -17 10 -19 121 -22 138 -3 159 1 159 35 0 21 -11 29 -77 57 -43
18 -94 41 -114 51 -43 22 -39 22 -63 7z m149 -98 c3 -5 -4 -12 -16 -15 -23 -8
-45 7 -35 23 7 11 43 5 51 -8z"/>
<path d="M597 2083 c-4 -3 -7 -19 -7 -33 0 -36 -17 -49 -73 -56 -44 -6 -48 -5
-79 30 -37 41 -43 43 -58 16 -15 -27 11 -75 51 -96 49 -25 135 -11 181 29 36
31 42 46 39 95 -1 16 -7 22 -24 22 -13 0 -27 -3 -30 -7z"/>
<path d="M568 1913 c-15 -16 -31 -40 -37 -55 -14 -36 -48 -38 -61 -2 -7 19
-16 25 -33 22 -33 -5 -32 -38 3 -80 52 -63 103 -49 141 36 24 55 49 59 64 8 8
-27 14 -32 35 -30 40 5 39 47 -3 92 -42 44 -73 46 -109 9z"/>
<path d="M4067 1904 c-4 -4 -7 -17 -7 -29 0 -21 30 -34 149 -63 28 -6 37 -14
43 -40 7 -25 14 -32 33 -32 21 0 26 6 31 40 4 22 11 43 15 46 15 9 10 52 -7
58 -22 8 -21 8 -42 -14 -18 -19 -22 -20 -53 -7 -92 39 -149 53 -162 41z"/>
<path d="M766 1379 c-20 -16 -26 -29 -26 -58 0 -47 24 -71 72 -71 29 0 40 6
56 31 24 38 19 61 -20 94 -36 30 -48 31 -82 4z"/>
<path d="M3882 1314 c-16 -11 -22 -25 -22 -54 0 -32 6 -43 33 -64 44 -34 70
-33 101 5 30 36 31 40 11 79 -26 50 -79 65 -123 34z"/>
<path d="M1132 1038 c-15 -18 -53 -60 -86 -95 -59 -63 -66 -86 -30 -100 12 -4
25 4 43 25 44 54 73 33 30 -22 -26 -33 -22 -61 10 -61 19 0 27 9 44 52 11 29
27 55 36 58 29 9 71 55 71 78 0 21 -66 97 -84 97 -4 0 -20 -14 -34 -32z m58
-67 c0 -21 -38 -54 -52 -45 -13 8 -9 31 8 48 21 22 44 20 44 -3z"/>
<path d="M3540 1030 c-24 -24 -25 -31 -2 -61 30 -42 42 -63 72 -125 27 -57 50
-81 64 -67 10 11 7 48 -6 61 -9 10 -8 16 5 29 15 16 18 16 35 0 24 -22 58 -22
67 0 7 19 6 20 -92 95 -26 21 -61 49 -77 63 -35 30 -40 31 -66 5z m110 -115
c0 -23 -18 -27 -29 -6 -18 32 -14 43 9 31 11 -6 20 -17 20 -25z"/>
<path d="M1266 918 c-11 -18 -41 -61 -68 -95 -26 -35 -48 -69 -48 -77 0 -16
62 -66 83 -66 24 0 27 27 6 53 -24 32 -24 44 1 57 14 8 26 8 40 0 28 -15 39
14 14 41 -16 18 -17 21 -1 36 14 14 20 15 41 4 50 -27 64 22 16 57 -40 30 -62
28 -84 -10z"/>
<path d="M3415 928 c-11 -6 -30 -20 -42 -31 l-22 -20 43 -56 c24 -31 54 -75
67 -99 33 -57 53 -62 95 -21 46 45 46 83 -2 155 -49 74 -94 97 -139 72z m81
-74 c36 -40 53 -89 35 -107 -14 -14 -24 -3 -75 72 -28 41 -34 56 -24 63 21 13
29 10 64 -28z"/>
<path d="M1392 840 c-29 -53 -96 -155 -105 -161 -14 -10 -4 -41 17 -53 14 -9
20 -7 30 8 6 10 21 30 32 45 18 21 24 23 37 12 23 -18 52 -6 87 39 36 45 34
63 -8 102 -45 42 -69 45 -90 8z m66 -67 c-2 -22 -9 -29 -30 -31 -32 -4 -36 12
-11 40 25 27 45 23 41 -9z"/>
<path d="M3290 839 c0 -11 11 -35 24 -52 32 -44 39 -67 21 -67 -8 0 -15 5 -15
10 0 6 -4 10 -9 10 -5 0 -25 16 -45 36 -42 42 -72 43 -69 0 1 -16 10 -37 19
-47 10 -11 34 -52 54 -92 26 -52 43 -73 58 -75 31 -5 29 30 -4 73 -14 19 -24
42 -22 51 2 14 13 8 53 -29 82 -78 122 -55 63 35 -19 29 -45 76 -58 103 -13
28 -28 53 -34 57 -20 14 -36 8 -36 -13z"/>
<path d="M1540 758 c-11 -18 -20 -41 -20 -50 0 -9 -4 -19 -9 -22 -13 -8 -51
-89 -51 -108 0 -25 50 -68 79 -68 34 1 53 16 78 65 84 163 83 159 57 169 -24
9 -38 -7 -69 -81 -28 -68 -59 -108 -76 -97 -16 10 -10 35 31 115 38 76 43 109
14 109 -8 0 -23 -15 -34 -32z"/>
<path d="M3077 743 c-11 -11 -8 -45 10 -108 9 -33 19 -82 22 -110 5 -45 8 -50
31 -50 22 0 25 4 25 40 0 46 26 61 45 26 12 -24 48 -28 56 -7 3 8 -10 35 -30
60 -19 25 -49 70 -68 101 -26 43 -38 54 -59 55 -14 0 -29 -3 -32 -7z m91 -131
c2 -15 -2 -22 -12 -22 -11 0 -16 9 -16 26 0 31 23 28 28 -4z"/>
<path d="M1723 703 c-7 -2 -13 -11 -13 -19 0 -21 -49 -157 -60 -168 -18 -18
-11 -52 13 -65 13 -7 43 -11 67 -9 55 4 90 43 72 82 -9 20 -7 29 14 57 33 45
31 73 -9 103 -32 25 -57 30 -84 19z m67 -67 c0 -28 -12 -46 -30 -46 -28 0 -34
19 -14 41 20 22 44 25 44 5z m-30 -111 c0 -31 -40 -52 -53 -29 -14 24 2 54 29
54 19 0 24 -5 24 -25z"/>
<path d="M2931 682 c-33 -27 -34 -31 -34 -94 2 -115 64 -180 143 -153 31 11
35 16 34 46 -3 60 -26 109 -52 109 -29 0 -39 -26 -18 -49 19 -21 21 -61 3 -61
-20 0 -42 29 -58 72 -16 45 0 85 38 94 19 5 23 12 21 33 -4 37 -36 38 -77 3z"/>
<path d="M1886 648 c-9 -30 -49 -195 -53 -219 -4 -21 0 -28 24 -37 57 -22 70
-23 84 -6 12 14 10 19 -15 40 -26 23 -27 26 -17 72 6 26 17 67 24 92 17 55 13
70 -19 70 -14 0 -26 -6 -28 -12z"/>
<path d="M2807 652 c-14 -3 -18 -10 -14 -25 2 -12 13 -57 22 -100 13 -56 15
-81 7 -89 -22 -22 -38 2 -55 83 -25 113 -23 109 -53 109 -24 0 -26 -2 -21 -37
10 -72 35 -163 51 -188 29 -45 86 -47 118 -4 18 24 19 32 8 95 -7 38 -14 86
-17 106 -6 42 -19 56 -46 50z"/>
<path d="M2032 627 c-12 -15 -32 -97 -32 -134 -1 -15 -7 -46 -15 -68 -15 -43
-7 -65 26 -65 20 0 22 7 39 105 7 39 16 83 21 99 13 42 11 54 -10 65 -13 8
-22 7 -29 -2z"/>
<path d="M2158 602 c-44 -27 -68 -81 -68 -151 0 -52 4 -66 24 -86 43 -43 106
-46 106 -5 0 13 -11 24 -35 34 -34 15 -35 17 -35 69 0 58 19 87 57 87 11 0 26
7 33 15 10 13 10 19 -5 35 -21 24 -40 24 -77 2z"/>
<path d="M2530 606 c-28 -11 -34 -18 -32 -37 1 -13 6 -71 10 -129 6 -93 9
-105 26 -108 29 -6 46 23 35 61 -10 34 -9 35 23 51 34 17 30 50 -7 56 -42 7
-46 38 -5 53 25 9 30 17 28 37 -4 30 -27 35 -78 16z"/>
<path d="M2347 589 c-65 -38 -64 -202 3 -256 63 -51 131 41 114 156 -14 95
-59 134 -117 100z m61 -61 c18 -18 15 -113 -4 -133 -9 -9 -21 -14 -28 -12 -11
4 -21 119 -12 143 7 17 28 18 44 2z"/>
<path d="M6088 4583 l-968 -3 0 -2145 0 -2145 2145 0 2145 0 0 2145 0 2145
-812 0 c-447 0 -977 2 -1178 3 -201 2 -800 2 -1332 0z m1451 -54 c117 -18 225
-42 281 -60 85 -29 139 -48 158 -58 9 -5 35 -17 57 -27 256 -120 566 -401 708
-644 105 -180 203 -446 222 -600 4 -30 10 -71 15 -90 5 -19 11 -74 15 -122 6
-81 5 -88 -12 -88 -12 1 -35 28 -67 83 -28 45 -82 125 -120 179 -39 53 -107
147 -151 208 -125 175 -206 288 -269 375 -32 44 -105 146 -163 227 -98 138
-106 147 -126 136 -12 -6 -24 -15 -28 -19 -3 -5 -39 -32 -80 -61 -82 -57 -169
-120 -333 -238 -57 -41 -114 -82 -126 -90 -65 -44 -205 -152 -208 -160 -10
-27 -42 -5 -80 54 -23 36 -74 110 -114 165 -40 55 -109 150 -153 212 -44 61
-106 146 -137 189 -31 43 -68 97 -83 119 -26 43 -53 52 -75 26 -6 -7 -64 -51
-127 -97 -64 -46 -168 -121 -233 -168 -64 -47 -127 -92 -140 -100 -58 -39
-347 -259 -359 -273 -13 -17 -62 -24 -60 -9 2 21 180 277 241 347 142 162 286
286 433 371 44 26 203 103 250 122 100 39 224 70 360 90 87 13 426 14 504 1z
m-1130 -68 c19 -12 10 -22 -56 -67 -32 -21 -75 -52 -95 -69 -20 -16 -60 -48
-89 -70 -138 -104 -338 -332 -397 -450 -13 -27 -33 -66 -43 -85 -10 -19 -19
-48 -19 -63 0 -53 -36 -101 -117 -153 -55 -35 -127 -118 -149 -171 -27 -62
-14 -117 49 -211 37 -55 42 -93 23 -167 -9 -32 -16 -98 -16 -145 0 -88 22
-266 40 -335 6 -22 15 -58 20 -80 28 -129 147 -389 241 -528 94 -137 127 -178
242 -291 149 -145 325 -267 512 -355 69 -32 284 -101 315 -101 10 0 28 -8 41
-19 l23 -18 -39 -52 c-22 -28 -43 -51 -48 -51 -5 0 -36 20 -69 45 -33 25 -71
48 -85 51 -31 8 -85 -1 -125 -20 -36 -18 -60 -20 -74 -6 -14 14 -97 24 -131
15 -15 -3 -51 -32 -80 -63 l-52 -56 -58 63 c-75 80 -109 88 -180 43 -86 -55
-88 -63 -88 -328 0 -182 3 -237 14 -258 14 -24 13 -28 -7 -48 -21 -21 -31 -22
-266 -26 -284 -5 -369 1 -397 29 -19 19 -19 63 -19 2007 0 2178 -4 2025 58
2035 55 8 1107 6 1121 -2z m2867 -16 l24 -24 -2 -1992 -3 -1991 -24 -19 c-22
-18 -42 -19 -295 -19 -230 0 -275 2 -294 16 -21 14 -22 21 -22 165 0 159 5
179 49 214 65 51 83 72 92 113 12 56 -15 111 -74 150 l-42 27 -190 0 -190 0
-52 -29 c-59 -32 -80 -31 -146 11 -36 23 -52 26 -138 27 -66 1 -102 -3 -110
-12 -7 -6 -21 -12 -31 -12 -11 0 -35 -16 -55 -35 -41 -40 -64 -49 -99 -41 -23
6 -64 58 -64 82 0 14 39 31 100 43 204 43 497 174 621 280 8 6 32 25 54 41
130 97 275 247 368 379 39 57 78 115 86 130 7 14 30 55 50 91 43 77 96 216
136 355 41 144 50 234 30 299 -20 67 -19 108 6 166 21 50 22 97 4 300 -3 37
-59 241 -75 275 -5 11 -22 56 -38 100 -44 122 -139 294 -217 390 -126 156
-139 170 -230 254 -150 138 -165 151 -178 151 -6 0 -39 20 -72 45 -33 25 -63
45 -66 45 -14 0 -19 34 -7 42 7 4 251 8 541 8 l528 0 25 -25z m-2540 -342 c21
-32 63 -92 94 -134 30 -42 102 -142 160 -223 58 -80 146 -202 195 -270 50 -68
126 -175 170 -236 44 -62 97 -133 118 -158 43 -54 46 -76 15 -93 -23 -12 -79
-51 -305 -214 -271 -194 -334 -239 -433 -310 -249 -177 -325 -232 -368 -267
-26 -21 -54 -38 -63 -38 -10 0 -26 15 -36 33 -11 17 -46 69 -79 114 -32 45
-95 132 -139 193 -168 234 -287 400 -387 534 -57 76 -115 157 -130 179 -28 40
-36 89 -19 115 9 14 138 108 316 229 55 37 144 99 197 138 53 38 144 104 202
145 58 41 143 102 188 136 46 33 106 75 133 94 28 18 52 36 55 40 11 13 63 50
70 50 5 0 25 -26 46 -57z m1408 -220 c61 -90 120 -173 205 -291 90 -123 185
-256 254 -352 212 -296 273 -379 304 -412 20 -20 33 -43 30 -50 -2 -8 -33 -31
-68 -53 -64 -39 -139 -93 -402 -287 -77 -56 -185 -133 -240 -172 -56 -38 -125
-88 -153 -110 -28 -23 -60 -47 -70 -54 -38 -25 -203 -139 -291 -200 -50 -34
-103 -74 -118 -88 -31 -29 -47 -26 -71 13 -22 34 -109 158 -219 309 -44 62
-87 122 -95 134 -8 12 -57 78 -107 146 -51 68 -93 129 -93 136 0 7 35 37 78
66 42 29 116 80 164 115 48 34 145 104 217 155 130 93 153 118 129 137 -7 5
-33 40 -56 77 -24 37 -81 118 -128 180 -46 62 -84 118 -84 125 0 6 39 37 88
69 48 33 131 90 184 129 153 111 276 199 363 261 44 31 84 63 88 70 17 30 46
14 91 -53z m-2483 -939 c18 -31 66 -100 104 -154 39 -54 106 -148 150 -210 44
-62 125 -174 180 -250 55 -75 120 -167 145 -203 25 -37 50 -68 57 -71 6 -3 50
24 97 60 47 35 123 91 169 123 45 32 118 83 162 115 44 32 91 65 104 74 13 9
42 32 63 51 44 38 59 36 88 -12 18 -31 99 -147 197 -282 168 -232 213 -295
282 -392 40 -57 79 -103 87 -103 7 0 21 8 31 18 10 10 47 39 83 63 79 55 181
128 320 230 58 42 130 94 161 115 30 22 171 122 312 224 142 102 293 210 336
240 43 30 100 74 126 98 44 39 82 51 79 26 -1 -14 -34 -163 -51 -229 -50 -202
-126 -380 -228 -535 -148 -226 -329 -399 -563 -539 -56 -33 -105 -61 -107 -61
-3 0 -33 -13 -67 -29 -35 -16 -72 -31 -83 -34 -11 -3 -51 -16 -90 -30 -134
-46 -377 -87 -515 -87 -151 0 -423 51 -575 108 -232 86 -439 219 -616 394
-259 257 -427 589 -483 953 -16 109 -30 368 -19 378 15 16 31 4 64 -49z m1558
-1890 c3 -2 -9 -18 -24 -35 -35 -35 -60 -35 -88 3 -29 39 -15 50 51 42 32 -3
59 -8 61 -10z m836 -66 c72 -18 135 -91 135 -156 l0 -33 -57 3 c-48 3 -59 7
-69 25 -25 52 -44 63 -105 63 -47 0 -62 -4 -79 -22 -11 -12 -20 -28 -20 -35 0
-20 36 -52 67 -59 109 -24 200 -61 233 -93 66 -62 65 -181 0 -250 -73 -77
-256 -88 -349 -21 -43 32 -81 100 -81 148 l0 32 59 0 c57 0 59 -1 65 -31 3
-17 19 -44 35 -60 25 -25 37 -29 84 -29 68 0 117 34 117 80 0 30 -39 70 -68
70 -8 0 -40 7 -71 16 -142 42 -201 97 -201 189 0 75 45 135 119 159 80 26 97
26 186 4z m-1938 -1 c3 -3 4 -102 4 -220 -1 -141 2 -222 9 -239 26 -56 123
-77 173 -38 42 33 47 68 42 293 -2 114 -1 208 3 208 25 5 90 7 105 3 15 -5 17
-24 17 -217 -1 -224 -8 -283 -42 -333 -38 -55 -78 -69 -197 -69 -88 0 -112 3
-139 20 -47 28 -79 81 -91 149 -16 87 -15 443 2 449 15 6 106 1 114 -6z m598
-16 c6 -8 25 -42 43 -74 18 -33 47 -84 65 -115 18 -32 48 -87 67 -124 19 -38
40 -68 47 -68 15 0 15 27 4 240 -5 86 -5 150 1 157 12 15 95 15 105 0 4 -7 6
-147 3 -312 l-5 -300 -29 -3 c-59 -7 -90 6 -111 46 -11 20 -40 71 -64 112 -60
102 -101 182 -101 196 0 6 -11 19 -25 28 -23 15 -26 15 -31 1 -3 -8 -3 -23 1
-32 3 -10 11 -90 16 -177 7 -125 6 -162 -4 -168 -20 -13 -107 -10 -108 5 -3
75 1 598 5 605 9 15 110 1 121 -17z m796 17 c68 -23 149 -109 149 -157 0 -25
-4 -27 -67 -36 -51 -7 -53 -6 -65 22 -21 48 -57 72 -110 73 -54 0 -95 -28
-122 -84 -22 -47 -22 -205 0 -253 54 -113 198 -110 233 6 13 44 22 48 82 31
56 -16 62 -29 37 -80 -30 -60 -89 -117 -135 -129 -48 -14 -137 -14 -184 -1
-50 14 -109 68 -143 131 -27 49 -29 60 -29 164 0 104 2 115 31 175 33 67 81
113 145 137 42 15 135 16 178 1z m1217 -49 c2 -30 -1 -55 -8 -59 -5 -3 -41 -3
-78 2 -37 4 -73 6 -81 3 -12 -5 -13 -47 -9 -255 5 -213 4 -249 -9 -254 -27
-11 -100 -6 -110 7 -5 7 -7 107 -3 247 3 129 2 240 -3 247 -5 8 -31 10 -81 6
-80 -6 -85 -4 -92 52 -7 59 -2 60 247 58 l224 -1 3 -53z m-421 -181 c18 -22
23 -66 13 -93 -9 -24 -12 -25 -27 -14 -21 18 -56 96 -48 109 9 14 51 12 62 -2z
m-817 -20 c52 -36 58 -53 29 -77 -84 -70 -122 -65 -127 16 -5 81 34 104 98 61z
m200 -58 c9 -16 8 -22 -5 -26 -15 -6 -55 21 -55 38 0 17 50 7 60 -12z"/>
<path d="M6388 3576 c-26 -11 -68 -56 -68 -73 0 -5 -25 -26 -56 -47 -40 -27
-60 -34 -67 -27 -16 16 -42 13 -81 -10 -65 -38 -83 -96 -47 -147 16 -24 18
-39 12 -129 -6 -94 -8 -103 -33 -122 -45 -36 -68 -83 -68 -141 0 -129 112
-223 240 -200 40 7 54 15 101 58 24 21 30 22 69 12 23 -6 54 -8 70 -5 22 5 35
0 63 -24 45 -40 88 -49 124 -26 48 31 66 56 70 100 4 33 14 51 44 80 22 21 42
49 45 61 4 13 10 24 15 24 5 0 9 9 9 19 0 12 18 33 44 51 40 29 55 53 56 88 0
7 -20 34 -44 60 -28 30 -46 60 -50 85 -4 20 -10 37 -14 37 -12 0 -41 70 -31
76 20 12 8 63 -22 93 -31 31 -81 42 -94 21 -9 -14 -38 -12 -71 5 -16 8 -43 15
-60 15 -20 0 -39 9 -55 26 -38 41 -69 53 -101 40z m60 -58 c17 -17 15 -38 -5
-60 -22 -25 -51 -23 -64 6 -22 47 33 90 69 54z m153 -76 c9 -9 20 -34 23 -54
6 -35 4 -41 -48 -93 -29 -30 -61 -55 -69 -55 -26 0 -54 46 -61 101 -7 50 -6
53 31 91 34 35 42 39 73 33 19 -4 42 -14 51 -23z m133 -8 c19 -19 20 -33 2
-56 -17 -22 -34 -23 -58 -1 -23 20 -23 49 0 62 24 15 38 13 56 -5z m-362 -22
c22 -22 28 -41 34 -96 7 -67 7 -68 -26 -98 -31 -27 -33 -35 -32 -84 1 -43 -3
-58 -20 -74 -27 -25 -26 -25 -84 1 -27 11 -57 18 -68 15 -32 -8 -56 11 -56 47
0 53 20 80 65 89 75 16 110 79 84 152 -12 32 -11 36 12 55 33 28 59 26 91 -7z
m-161 -42 c24 -13 26 -72 3 -94 -18 -19 -75 -21 -92 -4 -7 7 -12 28 -12 48 0
20 5 41 12 48 15 15 63 16 89 2z m569 -94 c26 -58 25 -75 -6 -110 -25 -28 -25
-28 -109 -21 -46 4 -88 12 -93 18 -25 33 -20 47 36 101 53 52 61 56 104 56 46
0 48 -1 68 -44z m-276 -87 c32 -25 33 -55 4 -86 -43 -46 -118 -17 -118 46 0
22 44 61 70 61 10 0 29 -9 44 -21z m358 -46 c22 -20 23 -41 1 -65 -20 -22 -31
-23 -55 -1 -24 22 -23 49 4 67 28 20 27 20 50 -1z m-142 -55 c35 -13 70 -48
70 -70 0 -20 -22 -59 -64 -111 l-29 -36 -25 19 c-13 11 -33 20 -44 20 -35 0
-57 20 -83 75 -27 56 -26 64 8 103 19 20 27 22 81 16 34 -4 72 -11 86 -16z
m-280 -54 c31 -13 45 -27 65 -66 30 -60 31 -72 5 -105 -11 -14 -20 -36 -20
-49 0 -22 -4 -24 -50 -24 -59 0 -69 12 -62 79 3 39 0 55 -23 90 l-27 43 23 24
c27 28 36 29 89 8z m-164 -46 c68 -63 67 -170 -2 -226 -68 -56 -135 -51 -201
14 -39 40 -43 48 -43 93 0 95 57 151 153 151 51 0 61 -4 93 -32z m378 -143
c25 -38 20 -71 -14 -95 -27 -19 -35 -21 -61 -10 -52 22 -64 68 -27 107 30 32
80 31 102 -2z"/>
<path d="M7628 3297 c-30 -25 -37 -61 -14 -74 22 -12 28 -91 11 -117 -26 -36
-17 -56 56 -127 88 -86 119 -103 175 -96 87 9 86 -52 -1 -97 -31 -16 -76 -45
-101 -64 -54 -41 -112 -52 -137 -27 -23 22 -21 58 3 80 53 48 2 82 -61 41 -34
-23 -39 -31 -39 -65 0 -23 6 -44 16 -51 47 -40 36 -82 -22 -78 -18 1 -36 -1
-39 -4 -4 -3 -7 -116 -8 -249 l-2 -244 210 -3 c116 -2 233 0 262 3 l52 6 3 97
3 97 94 3 93 3 -6 57 c-8 73 2 92 38 68 20 -12 26 -25 26 -51 0 -18 4 -36 9
-39 7 -5 101 85 101 97 0 2 -33 36 -72 77 l-73 73 0 56 c1 37 7 65 18 81 22
31 22 83 0 118 -26 41 -135 152 -149 152 -7 0 -33 9 -58 19 -44 19 -45 21 -48
71 -3 43 -7 54 -29 67 -22 14 -32 14 -55 4 -61 -26 -82 -88 -50 -150 15 -28
15 -31 -3 -41 -28 -15 -58 0 -113 57 -46 47 -48 51 -45 100 3 41 9 55 31 75
35 29 29 61 -14 83 -35 18 -29 19 -62 -8z m412 -497 c0 -5 12 -13 26 -16 38
-10 43 -38 20 -104 -19 -54 -19 -63 -7 -154 13 -92 13 -99 -6 -124 -26 -34
-47 -47 -68 -39 -15 6 -16 21 -13 127 3 138 2 141 -71 135 -170 -15 -172 -15
-178 2 -9 22 29 51 75 58 78 13 116 33 147 80 21 30 37 45 53 45 12 0 22 -4
22 -10z m-427 -258 c-2 -12 -7 -28 -13 -35 -5 -7 -18 -23 -28 -36 -29 -38 -52
-22 -45 31 7 56 19 70 57 66 26 -2 31 -7 29 -26z m303 4 c14 -13 26 -214 14
-221 -16 -10 -35 6 -64 51 -16 26 -53 73 -83 104 -76 83 -73 90 35 83 48 -3
92 -11 98 -17z m-227 -68 c6 -7 37 -47 70 -88 33 -41 83 -99 111 -128 28 -30
49 -59 47 -65 -3 -9 -54 -11 -187 -10 -101 2 -186 5 -189 9 -12 12 -3 85 15
111 20 30 27 43 65 113 43 78 48 83 68 58z"/>
</g>
</svg>
